<?xml version="1.0" encoding="UTF-8"?>
<svg version="1.1" xmlns="http://www.w3.org/2000/svg" width="1200" height="1200">
<path d="M0 0 C2.18347879 0.00565094 4.36694978 0.00846475 6.55043411 0.0110817 C28.07150623 0.04855921 49.34295956 0.56179199 70.71007156 3.31805801 C72.12826985 3.49218139 73.54656747 3.66549739 74.96495438 3.83807755 C141.41792242 12.01048026 205.40936283 31.29341694 265.71007156 60.31805801 C266.62723953 60.75472794 267.5444075 61.19139786 268.48936844 61.6413002 C282.689811 68.41902846 296.21545244 76.23907341 309.71007156 84.31805801 C310.55408524 84.82014786 311.39809891 85.3222377 312.26768875 85.83954239 C323.04426174 92.25906941 333.48063243 99.0595451 343.71007156 106.31805801 C344.44258133 106.8365834 345.17509109 107.3551088 345.92979813 107.88934708 C363.47730882 120.34411032 380.2939685 133.54717766 396.19835281 148.05243301 C398.2802532 149.93035249 400.38282157 151.7762332 402.49913406 153.61493301 C406.67482195 157.26140453 410.7352441 161.01960249 414.77257156 164.81805801 C415.44095047 165.44325333 416.10932938 166.06844864 416.79796219 166.71258926 C422.98344624 172.51937021 428.96914491 178.39646721 434.50304031 184.82977676 C436.86523124 187.49299025 439.294655 190.08223024 441.73741531 192.6713295 C448.02764854 199.34140372 453.99540843 206.143723 459.71007156 213.31805801 C460.74869616 214.5903138 461.78919635 215.8610398 462.83116531 217.13055801 C465.62195933 220.53200328 468.39251089 223.94894359 471.14854813 227.37860489 C472.15667786 228.6307285 473.1687746 229.87967324 474.1856575 231.12469864 C475.5009636 232.73998684 476.79561948 234.36960462 478.08507156 236.00555801 C478.81468094 236.9169252 479.54429031 237.82829239 480.29600906 238.76727676 C481.71007156 241.31805801 481.71007156 241.31805801 481.43663406 244.15008926 C481.07698563 245.2232338 481.07698563 245.2232338 480.71007156 246.31805801 C479.02257156 247.13055801 479.02257156 247.13055801 476.71007156 247.31805801 C472.8212081 243.84095657 469.7248515 239.88787645 466.58507156 235.75555801 C462.05294176 229.88488338 457.24733863 224.38351574 452.18272781 218.97040176 C450.20526825 216.84924056 448.28533963 214.70558847 446.39757156 212.50555801 C435.04204209 199.44263389 423.06894263 186.39266336 409.85460281 175.18133926 C407.54835206 173.17754762 405.31800318 171.10567434 403.08604813 169.01996231 C397.79058368 164.07441505 392.41712964 159.31383974 386.76085281 154.77899551 C384.44453523 152.9105191 382.15555105 151.02190623 379.87804031 149.10712051 C357.78825418 130.58037066 333.62863967 113.75715122 308.60118484 99.40936661 C306.47928796 98.18487925 304.37457874 96.93310598 302.26866531 95.68133926 C224.91323093 50.11432322 135.99938938 23.52423655 -136.13953781 34.21210098 C-170.92826896 43.3960155 -204.63561728 55.17558713 -237.28992844 70.31805801 C-238.93469162 71.07771866 -238.93469162 71.07771866 -240.61268234 71.85272598 C-256.61433824 79.2850891 -272.07428551 87.39314905 -287.28992844 96.31805801 C-288.95525297 97.28036691 -290.62061649 98.24260833 -292.28602219 99.20477676 C-319.17008284 114.89027632 -344.53489263 133.23441574 -368.28992844 153.31805801 C-368.91238449 153.84141739 -369.53484055 154.36477676 -370.17615891 154.90399551 C-382.02841145 164.87950954 -393.42944187 175.26666445 -404.28992844 186.31805801 C-407.19320296 189.23137847 -410.10983483 192.13086497 -413.03211594 195.02508926 C-414.40977239 196.39352621 -415.78737538 197.76201698 -417.16492844 199.13055801 C-417.8468425 199.80409317 -418.52875656 200.47762833 -419.23133469 201.17157364 C-423.79927743 205.71776427 -428.09975799 210.42325123 -432.28992844 215.31805801 C-433.26331181 216.4357465 -434.23724335 217.5529579 -435.21180344 218.66962051 C-442.16230602 226.69288117 -448.86009366 234.87160288 -455.28992844 243.31805801 C-455.81280441 244.00432266 -456.33568039 244.69058731 -456.87440109 245.39764786 C-513.33627846 319.89665286 -550.14852959 405.73513918 -572.28992844 532.31805801 C-572.43800949 533.49094376 -572.58609055 534.6638295 -572.73865891 535.87225723 C-577.9159189 578.00924625 -577.79796579 623.23477156 -572.28992844 665.31805801 C-572.1453923 666.49867813 -572.00085617 667.67929825 -571.85194016 668.89569473 C-562.28487184 746.45993298 -536.82777748 821.91190348 -497.28992844 889.31805801 C-496.32761954 890.98338255 -495.36537812 892.64874607 -494.40320969 894.31415176 C-480.55957161 918.04136584 -464.73451585 941.13454375 -447.05945969 962.18915176 C-445.39886811 964.18699373 -443.84051793 966.23453001 -442.28992844 968.31805801 C-442.00383713 967.68005264 -441.71774582 967.04204727 -441.42298508 966.3847084 C-431.36368021 944.01887126 -421.32683096 923.09848707 -405.28992844 904.31805801 C-404.6312175 903.52399551 -403.97250656 902.72993301 -403.29383469 901.91180801 C-369.53082304 862.23857099 -298.93231675 851.14648057 -251.13148117 836.80047989 C-240.77935624 833.69173616 -230.44925998 830.53736668 -220.18568039 827.14471817 C-217.10492417 826.13773008 -214.55434857 825.31805801 -211.28992844 825.31805801 C-211.25254562 824.18110489 -211.21516281 823.04415176 -211.17664719 821.87274551 C-210.53569409 805.64586129 -208.90963949 788.43968961 -197.22742844 775.96649551 C-185.39973919 765.9034212 -167.97676939 758.31805801 -152.28992844 758.31805801 C-151.98381626 751.11499318 -151.77478616 743.91362156 -151.63074875 736.70550919 C-151.57066964 734.25793171 -151.48897432 731.81078014 -151.384655 729.36468887 C-150.10710679 715.21181528 -150.10710679 715.21181528 -154.77064133 702.42840958 C-157.62895725 699.54100915 -160.85374424 697.46342504 -164.28992844 695.31805801 C-165.58443228 694.17731619 -166.85083877 693.00264655 -168.06727219 691.77899551 C-168.59345139 691.27070206 -169.11963058 690.7624086 -169.66175461 690.23871231 C-217.45091718 643.06060717 -238.25567465 573.63990147 -243.28992844 508.31805801 C-243.37669846 507.19802383 -243.37669846 507.19802383 -243.46522141 506.0553627 C-248.79915722 433.27958563 -237.04881505 351.73179605 -187.90076828 294.70624161 C-184.77229994 291.17088842 -181.54532949 287.73647612 -178.28992844 284.31805801 C-177.30959641 283.25844864 -177.30959641 283.25844864 -176.30945969 282.17743301 C-147.6847847 252.14898932 -106.27693435 235.89932682 -66.28992844 228.56805801 C-65.21203049 228.36922012 -64.13413254 228.17038223 -63.02357101 227.96551895 C-44.57566384 224.77904984 -26.16652861 223.93874585 -7.47742844 224.00555801 C-5.87876938 224.00829224 -5.87876938 224.00829224 -4.24781418 224.0110817 C61.8566709 224.20039918 129.98042542 237.86390271 183.71007156 278.31805801 C184.27210281 278.74119278 184.83413406 279.16432755 185.41319656 279.60028458 C189.20760284 282.47002189 192.96218992 285.387896 196.71007156 288.31805801 C197.53764969 288.94969864 198.36522781 289.58133926 199.21788406 290.23212051 C238.38207919 320.60699132 268.71488382 368.73609493 275.18004227 418.40008926 C277.22964478 435.69494064 275.01495258 452.21949964 271.71007156 469.19305801 C271.3228457 471.2604283 270.9374213 473.32813683 270.55382156 475.39618301 C269.62650175 480.37426272 268.67536004 485.34720745 267.71007156 490.31805801 C268.337845 490.61897354 268.96561844 490.91988907 269.61241531 491.22992325 C276.58177292 494.84519639 279.95827927 502.88025104 282.25235367 510.00137711 C282.8832613 513.19463584 282.8152108 516.2433014 282.79527664 519.4982338 C282.79209427 520.21427277 282.7889119 520.93031174 282.78563309 521.66804886 C282.77305808 524.03324204 282.75216804 526.3982526 282.72960281 528.76337051 C282.71916726 529.98030909 282.71916726 529.98030909 282.70852089 531.22183228 C282.6711426 535.51928815 282.62715722 539.81661996 282.57799149 544.11395645 C282.52878127 548.53183898 282.5024875 552.94954175 282.48156071 557.36763573 C282.46108554 560.78240543 282.4231692 564.19682875 282.38070107 567.61138916 C282.36346883 569.23864447 282.35269087 570.86598249 282.34875298 572.49332428 C282.30886532 585.24646649 280.70622616 595.62337848 271.71007156 605.31805801 C270.87081131 605.85881973 270.03155106 606.39958145 269.16685867 606.95672989 C265.94563299 610.05279417 265.88499323 612.64494245 265.74132156 616.88837051 C265.69566055 617.63346375 265.64999954 618.37855698 265.60295486 619.14622879 C265.50539913 620.74566485 265.41734385 622.34570341 265.33787918 623.94614029 C265.12197119 628.16423388 264.81654624 632.37548008 264.50694656 636.58758926 C264.4458168 637.42684448 264.38468704 638.2660997 264.32170486 639.1307869 C261.49669501 675.8876188 248.21285458 713.75923748 228.98497391 745.14203262 C222.00600531 756.63232158 218.99436404 767.16045364 216.71007156 780.31805801 C215.72866697 785.63411492 214.72275968 790.9453823 213.71007156 796.25555801 C213.58239395 796.92911331 213.45471634 797.60266861 213.32316971 798.29663467 C209.39491926 818.93539912 204.23419434 836.83141791 186.18638992 849.23773575 C180.52804963 853.04654319 174.85957625 856.35214646 168.71007156 859.31805801 C176.166541 862.44200893 183.76123849 865.0682786 191.42329788 867.63315201 C237.21333942 883.03097197 288.21518234 902.34991574 322.71007156 937.31805801 C323.49382156 938.10309708 324.27757156 938.88813614 325.08507156 939.69696426 C336.27891066 951.49324956 344.21609007 966.00157603 351.71007156 980.31805801 C352.05779617 980.97934708 352.40552078 981.64063614 352.7637825 982.32196426 C363.17672463 1002.43672076 369.90065882 1024.49733696 375.71007156 1046.31805801 C376.87022781 1045.24878067 376.87022781 1045.24878067 378.05382156 1044.15790176 C387.50469804 1035.46212109 387.50469804 1035.46212109 391.71007156 1031.81805801 C401.12081473 1023.64110742 410.11693558 1015.07640755 418.91197586 1006.24652481 C420.53559386 1004.61749229 422.1645676 1002.99395073 423.79405594 1001.37079239 C429.31004592 995.85867556 434.66637727 990.27018811 439.71007156 984.31805801 C440.73161048 983.14972858 441.7550333 981.98304353 442.78038406 980.81805801 C459.93666122 961.19975633 475.54127964 940.73355602 490.02257156 919.06805801 C490.6470166 918.13615646 490.6470166 918.13615646 491.28407669 917.18542862 C520.36883491 873.69666008 542.91808772 826.79391199 559.71007156 777.31805801 C560.05876297 776.30711075 560.40745438 775.29616348 560.76671219 774.25458145 C579.39550069 719.98888492 588.20608031 662.54836582 589.71007156 605.31805801 C589.74511795 604.12358047 589.74511795 604.12358047 589.78087234 602.90497208 C591.85166516 523.24035452 575.57384011 441.30069868 532.94371414 340.32416153 C531.20573128 336.83366966 530.32458378 334.23224163 530.71007156 330.31805801 C532.36007156 329.98805801 534.01007156 329.65805801 535.71007156 329.31805801 C576.39719868 404.03114542 598.71204343 487.0684268 584.71007156 744.31805801 C584.4308284 745.47338028 584.15158524 746.62870255 583.86388016 747.81903458 C563.12312144 832.43118177 521.35684237 912.55620602 465.71007156 979.31805801 C465.22941238 979.89781387 464.7487532 980.47756973 464.25352859 981.07489395 C458.12737821 988.45503369 451.79045263 995.59709048 445.26158524 1002.62298965 C444.0892356 1003.9038116 442.93020831 1005.19684517 441.77769852 1006.49554825 C436.26231159 1012.704912 430.5268011 1018.65676187 424.64390945 1024.51459122 C423.14200232 1026.01110727 421.64556094 1027.51294101 420.14952469 1029.01532364 C414.8388928 1034.32962063 409.42305785 1039.43937547 403.71007156 1044.31805801 C402.10238784 1045.77251318 400.49767442 1047.23026696 398.89757156 1048.69305801 C393.6482618 1053.42381894 388.21383211 1057.88802853 382.71007156 1062.31805801 C381.57693459 1063.24344209 380.44413708 1064.16924195 379.31163406 1065.09540176 C369.72228495 1072.89932704 359.82030223 1080.20470543 349.71007156 1087.31805801 C348.56514236 1088.12460831 348.56514236 1088.12460831 347.39708328 1088.94745255 C273.44188546 1140.82367923 188.56173915 1175.45070297 -101.35047531 1188.20233536 C-168.02048068 1176.46509697 -233.61339084 1153.17808011 -292.28992844 1119.31805801 C-293.07271164 1118.87139786 -293.85549484 1118.4247377 -294.66199875 1117.96454239 C-323.78256167 1101.27245697 -351.52103891 1081.79672355 -377.28992844 1060.31805801 C-377.8696843 1059.83739883 -378.44944016 1059.35673965 -379.04676437 1058.86151505 C-386.42620985 1052.73594096 -393.56734255 1046.3994105 -400.59290695 1039.87152481 C-401.88044864 1038.69289904 -403.18000098 1037.5273774 -404.4849968 1036.36810684 C-410.53601397 1030.98962435 -416.34760259 1025.416434 -422.05921555 1019.679142 C-423.48330335 1018.24966085 -424.91270887 1016.8256529 -426.34266281 1015.40204239 C-430.99780518 1010.74041202 -435.52916559 1006.03484701 -439.81653976 1001.03216934 C-441.82741461 998.6927572 -443.93629853 996.44901974 -446.03992844 994.19305801 C-450.33208896 989.49119126 -454.29500066 984.60749394 -458.18787766 979.57245255 C-461.09114496 975.82133743 -464.08191503 972.17488437 -467.16492844 968.56805801 C-489.41220231 941.98326534 -507.45414565 911.5270274 -524.28992844 881.31805801 C-524.71096848 880.56540665 -525.13200851 879.81275528 -525.56580734 879.0372963 C-563.69045015 810.35766388 -584.37281291 732.08699934 -592.28992844 654.31805801 C-592.4056218 653.26199356 -592.52131516 652.20592911 -592.64051437 651.1178627 C-601.54672959 567.5262938 -588.26989676 481.28490205 -533.28992844 335.31805801 C-532.83263351 334.36495743 -532.37533859 333.41185684 -531.90418625 332.42987442 C-521.70038022 311.28397402 -510.11408472 290.98026177 -497.28992844 271.31805801 C-496.86115402 270.65902481 -496.43237961 269.99999161 -495.99061203 269.3209877 C-482.78024157 249.08535975 -468.57328083 229.61094257 -452.81336594 211.27899551 C-450.35539025 208.39486925 -447.9744786 205.46050105 -445.60242844 202.50555801 C-442.40824549 198.5768838 -439.07938575 194.94716529 -435.40711594 191.46258926 C-433.56740398 189.59911719 -431.87374074 187.69362917 -430.16883469 185.70868301 C-425.78851602 180.66490917 -421.08493406 175.96676204 -416.35242844 171.25555801 C-415.06948898 169.96681778 -415.06948898 169.96681778 -413.76063156 168.65204239 C-409.31730527 164.21549462 -404.81135364 159.92234064 -400.04798508 155.83099747 C-397.63892641 153.757822 -395.31185206 151.59958621 -392.97742844 149.44305801 C-388.5449637 145.40526479 -384.01250667 141.54498367 -379.34461594 137.78290176 C-377.10681264 135.97720626 -374.88510944 134.15826489 -372.67274094 132.32196426 C-343.95896349 108.57106193 -312.21882557 88.2712282 -279.49793625 70.51825333 C-278.04930304 69.73082731 -276.60323463 68.93866047 -275.16004562 68.1413002 C-250.60772193 54.58625412 -224.67891267 43.72633569 -198.28992844 34.31805801 C-197.11204758 33.89572891 -195.93416672 33.47339981 -194.7205925 33.03827286 C-155.78196548 19.21054487 -115.59571235 9.97229072 -74.66492844 4.50555801 C-73.92742355 4.40600815 -73.18991867 4.30645828 -72.43006516 4.20389175 C-48.34115113 0.99913345 -24.28070557 -0.06388108 0 0 Z M265.71007156 502.31805801 C263.47861805 515.49311583 263.43502931 528.53711244 263.50426102 541.87005997 C263.52244815 545.48105401 263.52477035 549.0917886 263.52452469 552.70282364 C263.54078255 563.55833517 263.66165928 574.39866881 264.15929031 585.24383926 C264.19778595 586.09648865 264.23628159 586.94913803 264.27594376 587.82762527 C264.48017152 591.74776062 264.7871343 595.48644065 265.71007156 599.31805801 C271.16767747 595.47292658 273.86684558 591.77403918 275.71007156 585.31805801 C276.26645506 580.24588483 276.25039167 575.19508057 276.20616531 570.09930801 C276.20632063 568.63157454 276.20781507 567.16384066 276.2105751 565.69610977 C276.21195276 562.63321985 276.19950859 559.5708018 276.1766243 556.50799942 C276.14824114 552.60445023 276.15098531 548.70168374 276.16371441 544.79807663 C276.17070736 541.7712181 276.16284137 538.74453683 276.15045738 535.71770096 C276.14597789 534.27936358 276.14557504 532.84100694 276.14952278 531.402668 C276.24941636 517.2744417 276.24941636 517.2744417 269.58507156 505.25555801 C269.06686844 504.68708145 268.54866531 504.11860489 268.01475906 503.53290176 C266.88521384 502.20448151 266.88521384 502.20448151 265.71007156 502.31805801 Z " fill="#000000" transform="translate(594.2899284362793,-0.3180580139160156)"/>
<path d="M0 0 C1.52403442 0.01921509 1.52403442 0.01921509 3.07885742 0.03881836 C15.4503045 0.37296741 24.03921182 3.80102641 33.6875 11.5 C34.71810547 12.28503906 34.71810547 12.28503906 35.76953125 13.0859375 C44.9199554 20.48568878 50.93616084 29.95272483 55.39282227 40.6875 C56.08667764 42.32364671 56.88019151 43.91675512 57.6875 45.5 C59.1725 45.995 59.1725 45.995 60.6875 46.5 C60.37589539 44.29154015 60.06317654 42.08323749 59.75 39.875 C59.48896484 38.03035156 59.48896484 38.03035156 59.22265625 36.1484375 C58.75003221 32.9263145 58.22288191 29.71229144 57.6875 26.5 C58.6775 22.54 59.6675 18.58 60.6875 14.5 C80.4875 14.5 100.2875 14.5 120.6875 14.5 C121 31.8125 121 31.8125 121.07543945 37.2043457 C121.39767896 53.54846839 124.70557998 67.03133019 136.22265625 79.23828125 C145.94096815 88.155718 156.9861724 91.6621816 169.890625 91.6328125 C170.81698257 91.63426773 171.74334015 91.63572296 172.69776917 91.63722229 C175.77771898 91.63949145 178.85756087 91.63311823 181.9375 91.625 C182.99730072 91.62311676 184.05710144 91.62123352 185.14901733 91.61929321 C193.3286839 91.60245118 201.50802383 91.55722162 209.6875 91.5 C210.9491095 91.49139954 212.21071899 91.48279907 213.51055908 91.47393799 C221.25256583 91.41774551 228.99395576 91.3392655 236.73547363 91.23553467 C239.22833836 91.20372617 241.72126645 91.17652237 244.2142334 91.15411377 C247.73301507 91.12070799 251.25105981 91.06857091 254.76953125 91.01171875 C256.31369469 91.00211876 256.31369469 91.00211876 257.88905334 90.99232483 C271.38960495 90.72083925 283.99367231 87.14873284 294 77.75 C303.73574854 67.25613989 307.11108149 55.87650584 307.19921875 41.8046875 C307.21716995 40.73123077 307.23512115 39.65777405 307.25361633 38.55178833 C307.30733039 35.15956423 307.34148988 31.76747765 307.375 28.375 C307.40820741 26.05987685 307.44270018 23.74477177 307.47851562 21.4296875 C307.56303403 15.7865818 307.63154667 10.14345741 307.6875 4.5 C320.0625 0.375 320.0625 0.375 324.13671875 0.40234375 C324.98427734 0.40556641 325.83183594 0.40878906 326.70507812 0.41210938 C328.02668945 0.42467773 328.02668945 0.42467773 329.375 0.4375 C330.71401367 0.44426758 330.71401367 0.44426758 332.08007812 0.45117188 C334.28261987 0.46295017 336.48502599 0.47939836 338.6875 0.5 C338.72713867 1.31041748 338.76677734 2.12083496 338.80761719 2.95581055 C338.96600209 6.03009655 339.13941168 9.10310495 339.32226562 12.17602539 C339.43437873 14.13301673 339.5299278 16.09093494 339.625 18.04882812 C340.15625281 26.7480929 341.83150286 34.28669813 344.6875 42.5 C345.08755594 43.84059377 345.47881168 45.18389487 345.85546875 46.53125 C349.64028127 59.40831329 354.75430064 71.91891405 360.90625 83.8515625 C363.93658421 89.84160077 364.30360602 95.06568724 362.5625 101.5625 C360.93068804 106.36107034 358.61583667 110.38550165 355.6875 114.5 C355.130625 115.345625 354.57375 116.19125 354 117.0625 C346.19319284 125.29129674 335.97882147 129.29920004 325.6875 133.5 C325.6875 134.49 325.6875 135.48 325.6875 136.5 C339.62847451 137.52674935 351.04123402 133.59937264 361.6875 124.5 C370.85749268 115.53661028 375.38643676 107.06120301 376.23828125 94.25390625 C376.32376221 92.99006104 376.40924316 91.72621582 376.49731445 90.42407227 C376.56007568 89.45912842 376.62283691 88.49418457 376.6875 87.5 C377.56784912 87.47494385 378.44819824 87.4498877 379.35522461 87.42407227 C402.5358063 86.78520545 402.5358063 86.78520545 425.6875 85.5 C427.69903531 122.19934425 414.42779549 158.3817932 397.6875 190.5 C397.12289063 191.59828125 396.55828125 192.6965625 395.9765625 193.828125 C392.76033676 199.95858345 389.26365741 205.84317284 385.5625 211.6875 C375.60817758 227.52518427 371.71421345 242.9009397 368.1875 261.1875 C361.19319356 297.32292853 361.19319356 297.32292853 346.6875 307.5 C308.45062686 332.39537567 261.34318149 334.91479004 217.75 325.75 C190.27909565 319.73193224 167.90187222 311.69810297 146.04443359 293.64575195 C127.63096356 277.44175416 127.63096356 277.44175416 105.6875 268.5 C112.38099588 278.41299104 119.16671245 288.19097403 126.6875 297.5 C127.12610352 298.04301758 127.56470703 298.58603516 128.01660156 299.14550781 C162.3306058 341.21020921 207.14569954 367.42913394 261.375 373.625 C262.49261719 373.73070312 263.61023438 373.83640625 264.76171875 373.9453125 C269.32040592 374.80957629 271.8295727 376.24523408 274.4609375 380.09375 C275.25371094 381.53234375 275.25371094 381.53234375 276.0625 383 C278.80774458 387.75338853 278.80774458 387.75338853 283.5 390.125 C285.0778125 390.805625 285.0778125 390.805625 286.6875 391.5 C289.18447683 399.28127664 289.05443766 407.13928818 289.0625 415.25 C289.08699219 416.53132813 289.11148437 417.81265625 289.13671875 419.1328125 C289.18142433 433.82604609 285.0955466 446.5274912 275.3125 457.625 C269.47689187 463.16826553 261.97582224 466.29836537 254.6875 469.5 C253.87152344 469.86222656 253.05554688 470.22445313 252.21484375 470.59765625 C217.80681473 483.79071555 168.822909 471.45181718 136.6875 457.5 C101.42535649 441.61427574 68.22059905 417.4748572 44.6875 386.5 C43.92469727 385.5112085 43.92469727 385.5112085 43.14648438 384.50244141 C32.75308063 370.98921837 23.67032905 356.92117292 15.671875 341.86328125 C15.18098389 340.94474365 14.69009277 340.02620605 14.18432617 339.07983398 C13.2499613 337.31782063 12.33005018 335.54804216 11.42700195 333.76977539 C9.09815228 329.10410254 9.09815228 329.10410254 4.98828125 326.15625 C3.84939453 325.83140625 3.84939453 325.83140625 2.6875 325.5 C-0.45831143 319.83753943 -0.45831143 319.83753943 -0.109375 316.63671875 C0.98366614 313.70586825 2.60526547 311.30767654 4.3125 308.6875 C27.67039619 271.76525316 29.83024718 226.76491078 30.28839111 184.31719971 C30.32915855 180.71593865 30.37990916 177.11481766 30.4296875 173.51367188 C30.52510428 166.50921836 30.6099145 159.50467572 30.6875 152.5 C32.6675 152.17 34.6475 151.84 36.6875 151.5 C37.0175 150.51 37.3475 149.52 37.6875 148.5 C36.553125 148.17 35.41875 147.84 34.25 147.5 C8.34240995 138.79603047 -17.46634418 121.08072766 -30.38964844 96.44677734 C-32.5906011 91.88400858 -34.48801696 87.22428989 -36.3125 82.5 C-36.81910156 81.21802734 -36.81910156 81.21802734 -37.3359375 79.91015625 C-44.37106431 60.65062592 -42.36941253 40.01601798 -34.3125 21.5 C-26.21663964 7.29843111 -16.60705791 -0.31727983 0 0 Z " fill="#FEFEFE" transform="translate(425.3125,526.5)"/>
<path d="M0 0 C1.22203125 0.32871094 2.4440625 0.65742188 3.703125 0.99609375 C18.01541031 5.01139476 31.51118017 11.36449116 44.89453125 17.7421875 C45.93303726 18.23542007 45.93303726 18.23542007 46.99252319 18.73861694 C50.42958329 20.37188693 53.86048395 22.01597082 57.28125 23.68310547 C84.42329803 36.7612064 117.13563809 42.42535391 146.49414062 33.21777344 C161.19116401 28.0132981 173.969415 20.25181018 185.40234375 9.65234375 C188.79541098 7.49404685 191.04723238 7.64813514 195 8 C198.32499132 8.93099757 200.22720849 9.93326325 202.2734375 12.7578125 C215.96402246 37.7845506 220.96601359 71.24738322 215 99 C214.07058594 98.51789063 213.14117188 98.03578125 212.18359375 97.5390625 C210.93506245 96.90071567 209.68635505 96.26271322 208.4375 95.625 C207.82841797 95.30789063 207.21933594 94.99078125 206.59179688 94.6640625 C193.86037316 88.1973076 177.3411243 87.72468029 163.625 91.625 C157.09765826 94.07707018 151.23377149 97.08932806 146.9375 102.6875 C145.24847045 108.65540442 145.26176005 115.0283047 147 121 C146.26394531 121.556875 145.52789063 122.11375 144.76953125 122.6875 C136.94224647 128.80870553 132.15075808 133.67280948 129.375 143.25390625 C129.11460937 144.14537354 128.85421875 145.03684082 128.5859375 145.95532227 C128.39257812 146.63006592 128.19921875 147.30480957 128 148 C127.41621582 148.04487549 126.83243164 148.08975098 126.23095703 148.13598633 C123.52794858 148.35025245 120.82661048 148.58129749 118.125 148.8125 C116.74828125 148.91788086 116.74828125 148.91788086 115.34375 149.02539062 C109.64374897 149.52715128 104.51479326 150.55368238 99.08935547 152.38549805 C97 153 97 153 94 153 C93.59910156 152.09378906 93.19820312 151.18757812 92.78515625 150.25390625 C87.03008403 137.7237011 79.82489115 129.73066257 67 124 C66.2678125 123.67128906 65.535625 123.34257812 64.78125 123.00390625 C59.28409251 120.98118457 53.76911478 120.69968961 47.97851562 120.44287109 C47.10130608 120.40188986 46.22409653 120.36090862 45.32030487 120.31868553 C35.47644543 119.88884752 25.63328823 119.77886142 15.78125 119.7265625 C14.82163864 119.72123882 13.86202728 119.71591515 12.87333679 119.71043015 C7.81498017 119.68403844 2.75664558 119.66454113 -2.30175781 119.64990234 C-6.44846236 119.636481 -10.59468444 119.60842947 -14.74121094 119.56787109 C-19.80883167 119.51836654 -24.87601084 119.49376546 -29.94386292 119.48667526 C-31.85426207 119.48001314 -33.76465326 119.46492483 -35.6749115 119.44078445 C-52.1298886 119.24429332 -64.47976401 122.33727828 -76.96484375 133.8046875 C-83.21191609 140.3935034 -86.6906168 148.65417939 -90 157 C-98.34855712 157.86886401 -106.67505608 158.28991924 -115.0625 158.5625 C-116.24521484 158.60568359 -117.42792969 158.64886719 -118.64648438 158.69335938 C-128.43339689 159.02431777 -138.20857121 159.04413394 -148 159 C-147.99476318 157.95134766 -147.98952637 156.90269531 -147.98413086 155.82226562 C-147.96591815 151.90105048 -147.95450895 147.97983901 -147.94506836 144.05859375 C-147.94006513 142.36718109 -147.93326048 140.67577269 -147.92456055 138.984375 C-147.91231815 136.54165589 -147.90673145 134.09899438 -147.90234375 131.65625 C-147.89718246 130.91008423 -147.89202118 130.16391846 -147.88670349 129.3951416 C-147.88619073 124.5063173 -148.34991345 119.84510287 -149 115 C-150.37622597 92.02745225 -146.95237915 67.41216548 -131.49609375 49.23095703 C-127.85560788 45.2823457 -123.9690056 41.61432287 -120 38 C-119.30003906 37.34644531 -118.60007812 36.69289063 -117.87890625 36.01953125 C-115.96331383 34.28519918 -113.99890749 32.63774531 -112 31 C-110.53240234 29.77410156 -110.53240234 29.77410156 -109.03515625 28.5234375 C-95.46490438 17.38733835 -80.53505246 8.02672115 -64 2 C-63.32018066 1.74460449 -62.64036133 1.48920898 -61.93994141 1.22607422 C-42.91063064 -5.64598867 -19.34966145 -5.71694543 0 0 Z " fill="#FDFDFD" transform="translate(637,366)"/>
<path d="M0 0 C1.51190872 -0.01467788 3.02382068 -0.02902688 4.53573608 -0.04299927 C5.84887283 -0.05947006 7.16200958 -0.07594086 8.51493835 -0.09291077 C20.6501093 0.43047425 29.48133506 5.75055126 37.51498413 14.50363159 C43.38854727 21.88239754 44.82743091 27.62249132 44.20248413 37.06613159 C44.86248413 37.06613159 45.52248413 37.06613159 46.20248413 37.06613159 C46.3303391 43.53971007 46.41727252 50.0129574 46.47714233 56.48751831 C46.50212736 58.68523322 46.53612734 60.8828664 46.5796814 63.08029175 C46.88376495 78.82824232 46.66886979 92.00036668 35.20248413 104.06613159 C26.4294687 112.28239796 17.36479382 115.68581091 5.41952515 115.58370972 C4.39210205 115.59071899 3.36467896 115.59772827 2.30612183 115.60494995 C-1.06073742 115.62242943 -4.42674311 115.61094161 -7.79360962 115.59738159 C-10.15193339 115.60007958 -12.51025607 115.60396456 -14.86857605 115.60897827 C-19.80015705 115.61485993 -24.73144731 115.60635382 -29.66299438 115.58761597 C-35.96189524 115.56484028 -42.26011373 115.57794993 -48.55898952 115.60190582 C-53.42597018 115.61641034 -58.29279103 115.61173621 -63.15977669 115.60139465 C-65.48124333 115.59873959 -67.80272482 115.60195383 -70.12417412 115.61131287 C-73.37822363 115.62155364 -76.63119262 115.60587112 -79.88516235 115.58370972 C-80.83043289 115.59180664 -81.77570343 115.59990356 -82.74961853 115.60824585 C-94.52862852 115.46078605 -103.48084934 111.00032107 -111.92642212 103.06613159 C-117.19849917 97.62899872 -119.70215565 92.28742954 -121.79751587 85.06613159 C-122.12751587 84.07613159 -122.45751587 83.08613159 -122.79751587 82.06613159 C-122.89887495 80.53917087 -122.94584223 79.00826435 -122.95864868 77.47799683 C-122.96825623 76.54950424 -122.97786377 75.62101166 -122.98776245 74.66438293 C-122.99201233 73.66129593 -122.99626221 72.65820892 -123.00064087 71.62472534 C-123.00634094 70.58727676 -123.01204102 69.54982819 -123.01791382 68.48094177 C-123.02736677 66.28107727 -123.03389897 64.08119858 -123.03775024 61.88131714 C-123.04740791 58.54097136 -123.07840904 55.20125356 -123.11001587 51.86105347 C-123.11655101 49.71978106 -123.12179947 47.57850427 -123.12564087 45.43722534 C-123.13798767 44.44830795 -123.15033447 43.45939056 -123.16305542 42.44050598 C-123.12348818 29.9081127 -118.99075096 20.63013208 -110.67251587 11.37863159 C-102.83776169 3.85937087 -93.26262688 0.94033682 -82.71865845 0.86080933 C-81.90657425 0.85090973 -81.09449005 0.84101013 -80.25779724 0.83081055 C-77.56924343 0.79920455 -74.88067269 0.77440977 -72.19204712 0.74972534 C-70.31034421 0.72912347 -68.42864559 0.70812622 -66.54695129 0.68675232 C-61.58048245 0.63152383 -56.61397101 0.58218294 -51.64743042 0.53390503 C-47.64009532 0.49396454 -43.63281167 0.44984477 -39.62552357 0.40547085 C-34.79354706 0.35207236 -29.96155015 0.30065986 -25.12954712 0.24972534 C-24.22863657 0.24016752 -23.32772602 0.2306097 -22.39951515 0.22076225 C-17.32940159 0.16787471 -12.25931914 0.12321709 -7.18906021 0.08692551 C-4.79254172 0.06608834 -2.39637012 0.03357548 0 0 Z " fill="#FDFDFD" transform="translate(679.7975158691406,493.9338684082031)"/>
<path d="M0 0 C1.67542976 0.28604898 3.34385343 0.61781233 5 1 C5.16435547 2.38058594 5.16435547 2.38058594 5.33203125 3.7890625 C10.81070305 47.52935281 31.1537224 85.16416837 60.734375 117.51171875 C62.20100388 119.12248184 63.65028091 120.74928985 65.078125 122.39453125 C74.98085471 133.74599364 86.22843116 143.60441498 98.23339844 152.66601562 C99.40450954 153.55033722 100.57189205 154.43961989 101.73535156 155.33398438 C150.51767613 192.8167576 212.10061226 217.88034533 274.375 209.9375 C299.66833312 206.27156609 325.10953179 195.63174715 341 175 C357.65262117 150.61689598 359.6476225 121.97275629 359.2746582 93.34942627 C359.23299365 89.802061 359.2153148 86.25457307 359.1953125 82.70703125 C359.15301074 75.80439818 359.08517462 68.90223431 359 62 C360.32 62 361.64 62 363 62 C367.69077357 79.56544995 370.23601332 96.69231145 370.25 114.875 C370.25067474 115.65967651 370.25134949 116.44435303 370.25204468 117.25280762 C370.21476957 144.49916798 364.52331578 171.07345961 346 192 C345.21625 192.9796875 344.4325 193.959375 343.625 194.96875 C335.37357055 204.87046534 323.59155422 210.90530244 312 216 C311.04335449 216.42539063 311.04335449 216.42539063 310.06738281 216.859375 C265.73985413 236.14605756 212.64557925 227.6037895 169 211 C168.28859863 210.73638672 167.57719727 210.47277344 166.84423828 210.20117188 C139.00890557 199.82387895 112.79124738 182.93532637 90 164 C89.00226563 163.18789063 88.00453125 162.37578125 86.9765625 161.5390625 C72.42568877 149.51971624 58.38795876 136.08384802 47 121 C46.20980469 120.00355469 45.41960937 119.00710938 44.60546875 117.98046875 C19.16581084 85.82442648 -4.31783867 43.23134646 -1 1 C-0.67 0.67 -0.34 0.34 0 0 Z " fill="#F8F8F8" transform="translate(391,854)"/>
<path d="M0 0 C1.14004486 0.00424484 2.28008972 0.00848969 3.4546814 0.01286316 C7.06118363 0.02952541 10.66710693 0.0671548 14.2734375 0.10546875 C16.73306479 0.12053166 19.19270093 0.13421724 21.65234375 0.14648438 C27.65123595 0.17938804 33.64979534 0.22946185 39.6484375 0.29296875 C39.6638987 1.52300629 39.6638987 1.52300629 39.67967224 2.77789307 C39.77866909 10.60070594 39.88130426 18.42345945 39.98777676 26.24617386 C40.04236081 30.26549359 40.0956585 34.28482082 40.14575195 38.30419922 C40.43940465 61.87026062 40.43940465 61.87026062 41.44116211 85.41503906 C41.7020766 90.2965064 41.76637263 95.15614899 41.7109375 100.04296875 C41.70642578 100.85894531 41.70191406 101.67492187 41.69726562 102.515625 C41.68593729 104.44144171 41.66804355 106.36721852 41.6484375 108.29296875 C35.39316966 111.42060267 25.1194824 109.46840916 18.26611328 109.34667969 C15.86105829 109.3109723 13.45560584 109.29588244 11.05029297 109.30175781 C-8.22835479 109.29647237 -8.22835479 109.29647237 -13.16162109 106.13183594 C-16.46957375 102.77621155 -17.84859691 98.66270203 -19.3515625 94.29296875 C-19.9213414 93.05757858 -20.51007406 91.8307582 -21.1171875 90.61328125 C-25.3515625 82.04916244 -25.3515625 82.04916244 -25.3515625 79.29296875 C-24.61550781 79.195 -23.87945313 79.09703125 -23.12109375 78.99609375 C-15.3851538 77.92625033 -15.3851538 77.92625033 -9.3515625 73.29296875 C-5.23737935 66.68088869 -5.63423959 58.86676534 -5.3515625 51.29296875 C-2.81048738 52.49322125 -0.94036747 53.62584092 1.2734375 55.41796875 C3.40574349 57.49951685 3.40574349 57.49951685 5.6484375 57.29296875 C5.13930213 50.92877658 3.60990453 46.89565435 -1.25390625 42.62109375 C-8.66748729 36.82276221 -15.01717546 36.64021441 -24.3515625 37.29296875 C-27.54253159 38.04481352 -30.30285896 39.05281816 -33.3515625 40.29296875 C-33.3515625 38.97296875 -33.3515625 37.65296875 -33.3515625 36.29296875 C-32.3615625 35.63296875 -31.3715625 34.97296875 -30.3515625 34.29296875 C-29.85141297 31.83555338 -29.85141297 31.83555338 -30.3515625 29.29296875 C-30.8465625 28.83921875 -31.3415625 28.38546875 -31.8515625 27.91796875 C-33.3515625 26.29296875 -33.3515625 26.29296875 -33.7890625 23.16796875 C-32.96238357 15.8459554 -29.99842776 9.78730435 -24.46517944 4.84455872 C-17.40000619 -0.34193071 -8.38544745 -0.11957656 0 0 Z " fill="#FBFBFB" transform="translate(810.3515625,495.70703125)"/>
<path d="M0 0 C4.05224315 3.47797316 6.28900205 7.67559991 7.95703125 12.6796875 C8.33018839 17.71730888 8.00826666 20.61137362 4.95703125 24.6796875 C2.26162732 27.78368918 -0.03047213 28.48142619 -4.17431641 28.80859375 C-9.79883267 28.55584953 -15.15585212 26.85482205 -20.53964233 25.30871582 C-24.30266458 24.2282799 -28.07967827 23.19881228 -31.85546875 22.1640625 C-32.62247604 21.95247498 -33.38948334 21.74088745 -34.17973328 21.52288818 C-41.81411348 19.43260539 -49.50957713 17.667023 -57.23046875 15.9296875 C-84.08483397 9.79264091 -84.08483397 9.79264091 -94.04296875 2.6796875 C-93.91796875 0.4296875 -93.91796875 0.4296875 -93.04296875 -2.3203125 C-88.61120265 -5.84542721 -84.50493189 -7.29714763 -79.10546875 -8.5078125 C-78.42806641 -8.67216797 -77.75066406 -8.83652344 -77.05273438 -9.00585938 C-53.48596815 -14.58686729 -20.91846476 -13.7555833 0 0 Z " fill="#020202" transform="translate(684.04296875,455.3203125)"/>
<path d="M0 0 C6.23044794 4.39366597 11.82437127 9.84611182 13.9375 17.3125 C13.958125 18.199375 13.97875 19.08625 14 20 C13.34 20.66 12.68 21.32 12 22 C7.21565327 21.72885786 3.28726827 19.20904625 -0.8125 16.9375 C-1.50537109 16.56044922 -2.19824219 16.18339844 -2.91210938 15.79492188 C-4.61128985 14.86916148 -6.30609425 13.93537688 -8 13 C-8.09796875 14.21816406 -8.1959375 15.43632813 -8.296875 16.69140625 C-8.44705102 18.31518446 -8.59814138 19.93887829 -8.75 21.5625 C-8.8428125 22.76229492 -8.8428125 22.76229492 -8.9375 23.98632812 C-9.49049317 29.63146677 -10.77069262 33.3115241 -14 38 C-19.16229357 42.19436353 -23.60500637 42.63381061 -30.19140625 42.37890625 C-34.11261948 41.84989695 -36.1689619 40.76026215 -39 38 C-42.94248665 32.35965414 -43.53450079 28.35222083 -43.25 21.5625 C-43.23195313 20.73556641 -43.21390625 19.90863281 -43.1953125 19.05664062 C-43.1486214 17.03725067 -43.07689393 15.01846555 -43 13 C-44.3921875 14.0209375 -44.3921875 14.0209375 -45.8125 15.0625 C-46.864375 15.701875 -47.91625 16.34125 -49 17 C-49.99 16.67 -50.98 16.34 -52 16 C-51.87837433 10.16196792 -50.15711739 7.10377677 -46.171875 2.86328125 C-33.76540725 -7.78039702 -13.69018107 -8.32312693 0 0 Z " fill="#030303" transform="translate(650,527)"/>
<path d="M0 0 C5.41589077 0.3700298 9.03080174 1.84919007 13.6875 4.5625 C29.40091561 13.34823747 48.76184441 21.72676706 67.01171875 22.24609375 C67.93404297 22.27896484 68.85636719 22.31183594 69.80664062 22.34570312 C71.73880079 22.40727026 73.67110332 22.46451121 75.60351562 22.51757812 C76.98120117 22.56881836 76.98120117 22.56881836 78.38671875 22.62109375 C79.22420654 22.6461499 80.06169434 22.67120605 80.92456055 22.69702148 C83 23 83 23 85 25 C85.125 27.25 85.125 27.25 84 30 C76.03500136 38.24038423 65.84924877 40.42076193 54.8125 40.625 C44.8190452 40.57458161 36.91154423 38.37794203 28 34 C26.92234375 33.48179687 25.8446875 32.96359375 24.734375 32.4296875 C14.0347983 26.7506814 3.63071514 17.44978511 -1 6 C-1.20703125 3.2734375 -1.20703125 3.2734375 -1 1 C-0.67 0.67 -0.34 0.34 0 0 Z " fill="#030303" transform="translate(655,674)"/>
<path d="M0 0 C6.68822249 2.67831534 10.91682201 7.17750775 13.90234375 13.5390625 C15.3188539 17.19293228 15.79157402 20.43098952 15.796875 24.34765625 C15.79880859 25.72244141 15.79880859 25.72244141 15.80078125 27.125 C15.79691406 28.07503906 15.79304688 29.02507813 15.7890625 30.00390625 C15.79486328 31.42896484 15.79486328 31.42896484 15.80078125 32.8828125 C15.79949219 33.79933594 15.79820312 34.71585938 15.796875 35.66015625 C15.79574707 36.49353516 15.79461914 37.32691406 15.79345703 38.18554688 C15.668287 40.42821594 15.26990549 42.34799673 14.6640625 44.50390625 C13.51081533 51.74454674 15.82144569 56.48799172 19.44921875 62.70703125 C20.82526515 65.87503517 20.69765689 67.26727923 19.6640625 70.50390625 C14.11174368 69.32797846 10.15765403 66.6242728 6.9140625 62.01953125 C3.48102932 56.30881259 1.55118554 52.70213729 1.453125 45.9921875 C1.42476563 44.67669922 1.39640625 43.36121094 1.3671875 42.00585938 C1.32611119 39.91707993 1.28921628 37.82851961 1.26269531 35.73950195 C1.23483755 33.71909348 1.18894991 31.699697 1.140625 29.6796875 C1.110896 27.8685144 1.110896 27.8685144 1.08056641 26.02075195 C0.5865395 21.84932314 -0.37477372 19.2135603 -2.3359375 15.50390625 C-6.62681491 12.99414777 -10.38606031 11.66137396 -15.3359375 12.50390625 C-22.21575933 16.95555567 -23.91744004 22.87633734 -26.3359375 30.50390625 C-28.2734375 30.12890625 -28.2734375 30.12890625 -30.3359375 29.50390625 C-32.66779164 24.84019797 -32.02444269 18.11320935 -30.72265625 13.1796875 C-24.97182101 0.28464284 -12.98512854 -2.75771125 0 0 Z " fill="#040404" transform="translate(438.3359375,555.49609375)"/>
<path d="M0 0 C0 4.29 0 8.58 0 13 C-18.315 12.505 -18.315 12.505 -37 12 C-34.25462977 10.16975318 -32.85604342 9.58207736 -29.75390625 8.88671875 C-28.92165527 8.69295654 -28.0894043 8.49919434 -27.23193359 8.29956055 C-26.35102051 8.09758057 -25.47010742 7.89560059 -24.5625 7.6875 C-17.39959438 5.98593973 -10.81597385 4.00168768 -4.1171875 0.91796875 C-2 0 -2 0 0 0 Z " fill="#F1F1F1" transform="translate(851,472)"/>
<path d="M0 0 C-4.95 0 -9.9 0 -15 0 C-15 -0.33 -15 -0.66 -15 -1 C-13.56496445 -1.36402369 -12.12683494 -1.71586591 -10.6875 -2.0625 C-9.88699219 -2.25972656 -9.08648438 -2.45695312 -8.26171875 -2.66015625 C-4.68805633 -3.19713143 -2.96131242 -1.97420828 0 0 Z " fill="#D5D5D5" transform="translate(689,486)"/>
</svg>
